<svg height="17.47" viewBox="0 0 74.15 17.47" width="74.15" xmlns="http://www.w3.org/2000/svg"><rect fill="#004a98" height="17.47" rx="8.74" width="74.15"/><g fill="#fcdb04"><path d="m12.41 9.93c.29.57.82.95 1.58.95.87 0 1.06-.51 1.06-.82 0-.57-.51-.78-1.28-1.07-1.01-.38-1.8-.79-1.8-1.9 0-1.04.88-1.69 1.94-1.69 1 0 1.65.44 2.04 1.03l-.83.57c-.23-.37-.61-.59-1.19-.59-.5 0-.86.28-.86.67 0 .58.5.67 1.42 1.05 1.14.46 1.67.95 1.67 1.91 0 1.06-.72 1.85-2.2 1.85-1.2 0-2.03-.57-2.41-1.43l.85-.53z"/><path d="m19.59 7.1c.68 0 1.3.23 1.82.78l-.67.69c-.31-.32-.67-.5-1.15-.5-.79 0-1.39.6-1.39 1.42s.6 1.42 1.39 1.42c.49 0 .85-.18 1.15-.5l.67.69c-.52.56-1.14.78-1.82.78-1.37 0-2.47-1.02-2.47-2.4s1.1-2.4 2.47-2.4z"/><path d="m24.56 7.11c1.37 0 2.48 1.04 2.48 2.4s-1.11 2.4-2.48 2.4-2.48-1.04-2.48-2.4 1.1-2.4 2.48-2.4zm0 3.83c.79 0 1.4-.62 1.4-1.42s-.61-1.42-1.4-1.42-1.4.62-1.4 1.42.6 1.42 1.4 1.42z"/><path d="m28.17 7.24h1.07v.67c.22-.47.7-.76 1.35-.76.12 0 .28.02.32.03v1.04c-.13-.03-.28-.05-.45-.05-.75 0-1.22.47-1.22 1.22v2.39h-1.07z"/><path d="m31.7 9.51c0-1.46 1.02-2.39 2.38-2.39s2.24 1.02 2.24 2.29c0 0 0 .2-.02.38h-3.53c.04.72.57 1.19 1.37 1.19.55 0 .88-.18 1.22-.52l.65.63c-.58.62-1.22.81-1.91.81-1.42 0-2.4-.92-2.4-2.34v-.04zm3.52-.49c0-.54-.51-.99-1.14-.99-.67 0-1.23.44-1.28.99z"/><path d="m40.41 9.93c.29.57.82.95 1.58.95.87 0 1.06-.51 1.06-.82 0-.57-.51-.78-1.28-1.07-1.01-.38-1.8-.79-1.8-1.9 0-1.04.88-1.69 1.94-1.69 1 0 1.65.44 2.04 1.03l-.83.57c-.23-.37-.61-.59-1.19-.59-.5 0-.86.28-.86.67 0 .58.5.67 1.42 1.05 1.14.46 1.67.95 1.67 1.91 0 1.06-.72 1.85-2.2 1.85-1.2 0-2.03-.57-2.41-1.43l.85-.53z"/><path d="m44.77 7.24h1.02l.95 2.83.92-2.83h.82l.92 2.83.95-2.83h1.03l-1.52 4.54h-.84l-.94-2.87-.94 2.87h-.85l-1.51-4.54z"/><path d="m54.2 7.15c.76 0 1.29.34 1.45.76v-.66h1.08v3.17c0 .38.09.53.33.53.06 0 .16 0 .23-.02v.87c-.14.05-.34.07-.53.07-.2 0-.43-.03-.63-.14-.14-.1-.31-.26-.37-.55-.26.39-.74.71-1.56.71-1.28 0-2.27-1.03-2.27-2.38s.99-2.37 2.27-2.37zm.14 3.75c.78 0 1.39-.59 1.39-1.39s-.6-1.39-1.39-1.39-1.34.59-1.34 1.39.58 1.39 1.34 1.39z"/><path d="m62.84 7.24v3.78c0 .95-.1 1.71-.76 2.23-.41.32-.98.5-1.6.5-.85 0-1.58-.22-2.2-.66l.52-.8c.46.31.95.5 1.56.5.4 0 .76-.09 1-.27.38-.28.43-.75.43-1.15v-.22c-.2.36-.72.67-1.48.67-1.28 0-2.27-1-2.27-2.32s.99-2.35 2.27-2.35c.76 0 1.3.33 1.45.76v-.66h1.08zm-2.39 3.62c.78 0 1.39-.59 1.39-1.37s-.6-1.37-1.39-1.37-1.34.59-1.34 1.37.58 1.37 1.34 1.37z"/></g></svg>