<svg height="33.38" viewBox="0 0 149.26 33.38" width="149.26" xmlns="http://www.w3.org/2000/svg"><path d="m132.61 0h-115.96c-9.19 0-16.65 7.47-16.65 16.69 0 9.22 7.46 16.69 16.65 16.69h115.96c9.2 0 16.65-7.47 16.65-16.69 0-9.22-7.46-16.69-16.65-16.69z" fill="#004a98" fill-rule="evenodd"/><g fill="#fcdb04"><path d="m26.49 19.46c.58 1.15 1.66 1.93 3.19 1.93 1.77 0 2.15-1.04 2.15-1.66 0-1.15-1.04-1.58-2.58-2.17-2.04-.76-3.64-1.6-3.64-3.84 0-2.09 1.78-3.42 3.93-3.42 2.02 0 3.33.89 4.11 2.08l-1.67 1.15c-.47-.75-1.24-1.18-2.4-1.18-1 0-1.73.56-1.73 1.35 0 1.17 1.02 1.37 2.88 2.13 2.31.93 3.39 1.91 3.39 3.86 0 2.15-1.46 3.75-4.44 3.75-2.42 0-4.1-1.15-4.88-2.89l1.71-1.07z"/><path d="m40.57 13.74c1.37 0 2.62.46 3.68 1.58l-1.35 1.4c-.62-.64-1.35-1-2.33-1-1.6 0-2.82 1.22-2.82 2.88s1.22 2.88 2.82 2.88c.98 0 1.71-.36 2.33-1l1.35 1.4c-1.06 1.13-2.31 1.58-3.68 1.58-2.77 0-4.99-2.06-4.99-4.86s2.22-4.86 4.99-4.86z"/><path d="m50.16 13.76c2.77 0 5.01 2.11 5.01 4.86s-2.24 4.86-5.01 4.86-5.01-2.11-5.01-4.86 2.22-4.86 5.01-4.86zm0 7.74c1.6 0 2.84-1.26 2.84-2.88s-1.24-2.88-2.84-2.88-2.84 1.26-2.84 2.88 1.22 2.88 2.84 2.88z"/><path d="m57.02 14.03h2.17v1.37c.44-.95 1.42-1.55 2.73-1.55.24 0 .56.04.66.05v2.11c-.25-.05-.56-.09-.91-.09-1.51 0-2.48.95-2.48 2.46v4.82h-2.17z"/><path d="m63.7 18.62c0-2.95 2.06-4.84 4.81-4.84s4.53 2.06 4.53 4.62c0 0 0 .4-.04.76h-7.14c.07 1.46 1.15 2.4 2.77 2.4 1.11 0 1.78-.36 2.48-1.06l1.31 1.27c-1.18 1.26-2.48 1.64-3.86 1.64-2.88 0-4.86-1.86-4.86-4.73v-.07zm7.12-.98c0-1.09-1.04-2-2.31-2-1.37 0-2.49.89-2.58 2h4.9z"/><path d="m80.94 19.46c.58 1.15 1.66 1.93 3.19 1.93 1.77 0 2.15-1.04 2.15-1.66 0-1.15-1.04-1.58-2.58-2.17-2.04-.76-3.64-1.6-3.64-3.84 0-2.09 1.78-3.42 3.93-3.42 2.02 0 3.33.89 4.11 2.08l-1.67 1.15c-.47-.75-1.24-1.18-2.4-1.18-1 0-1.73.56-1.73 1.35 0 1.17 1.02 1.37 2.88 2.13 2.31.93 3.39 1.91 3.39 3.86 0 2.15-1.46 3.75-4.44 3.75-2.42 0-4.1-1.15-4.88-2.89l1.71-1.07z"/><path d="m89.3 14.03h2.06l1.91 5.72 1.86-5.72h1.66l1.86 5.72 1.91-5.72h2.08l-3.08 9.17h-1.69l-1.89-5.81-1.89 5.81h-1.71l-3.06-9.17z"/><path d="m107.91 13.83c1.55 0 2.6.69 2.93 1.53v-1.33h2.18v6.41c0 .76.18 1.07.67 1.07.13 0 .33-.02.46-.04v1.77c-.27.11-.69.15-1.07.15s-.87-.05-1.27-.29c-.29-.2-.62-.53-.75-1.11-.53.78-1.49 1.44-3.15 1.44-2.58 0-4.59-2.08-4.59-4.81s2-4.79 4.59-4.79zm.29 7.59c1.58 0 2.8-1.2 2.8-2.8s-1.22-2.8-2.8-2.8-2.71 1.2-2.71 2.8 1.17 2.8 2.71 2.8z"/><path d="m124.93 14.03v7.65c0 1.93-.2 3.46-1.55 4.51-.82.64-1.98 1.02-3.24 1.02-1.71 0-3.19-.44-4.44-1.33l1.06-1.62c.93.62 1.91 1 3.15 1 .8 0 1.53-.18 2.02-.55.76-.56.87-1.51.87-2.33v-.46c-.4.73-1.46 1.35-2.99 1.35-2.58 0-4.59-2.02-4.59-4.7s2-4.75 4.59-4.75c1.55 0 2.62.67 2.93 1.53v-1.33h2.18zm-4.82 7.32c1.58 0 2.8-1.18 2.8-2.77s-1.22-2.77-2.8-2.77-2.71 1.2-2.71 2.77 1.17 2.77 2.71 2.77z"/></g></svg>